<?xml version="1.0" encoding="UTF-8" standalone="no"?>
<!DOCTYPE svg PUBLIC "-//W3C//DTD SVG 1.1//EN"
 "http://www.w3.org/Graphics/SVG/1.1/DTD/svg11.dtd">
<!-- Generated by graphviz version 2.38.0 (20140413.2041)
 -->
<!-- Title: models_diagram Pages: 1 -->
<svg width="656pt" height="371pt"
 viewBox="0.00 0.00 656.34 371.00" xmlns="http://www.w3.org/2000/svg" xmlns:xlink="http://www.w3.org/1999/xlink">
<g id="graph0" class="graph" transform="scale(1 1) rotate(0) translate(4 367)">
<title>models_diagram</title>
<polygon fill="none" stroke="none" points="-4,4 -4,-367 652.343,-367 652.343,4 -4,4"/>
<!-- _diagram_info -->
<g id="node1" class="node"><title>_diagram_info</title>
<text text-anchor="start" x="8" y="-341.6" font-family="Times,serif" font-size="13.00">Models diagram</text>
<text text-anchor="start" x="8" y="-327.6" font-family="Times,serif" font-size="13.00">Date: Oct 25 2017 &#45; 17:28</text>
<text text-anchor="start" x="8" y="-313.6" font-family="Times,serif" font-size="13.00">Migration version: 20171025202613</text>
<text text-anchor="start" x="8" y="-299.6" font-family="Times,serif" font-size="13.00">Generated by RailRoady 1.5.3</text>
<text text-anchor="start" x="8" y="-285.6" font-family="Times,serif" font-size="13.00">http://railroady.prestonlee.com</text>
</g>
<!-- Personproyect -->
<g id="node2" class="node"><title>Personproyect</title>
<path fill="none" stroke="black" d="M244,-0.5C244,-0.5 464,-0.5 464,-0.5 470,-0.5 476,-6.5 476,-12.5 476,-12.5 476,-94.5 476,-94.5 476,-100.5 470,-106.5 464,-106.5 464,-106.5 244,-106.5 244,-106.5 238,-106.5 232,-100.5 232,-94.5 232,-94.5 232,-12.5 232,-12.5 232,-6.5 238,-0.5 244,-0.5"/>
<text text-anchor="middle" x="354" y="-91.3" font-family="Times,serif" font-size="14.00">Personproyect</text>
<polyline fill="none" stroke="black" points="232,-83.5 476,-83.5 "/>
<text text-anchor="start" x="240" y="-68.3" font-family="Times,serif" font-size="14.00">id :integer</text>
<text text-anchor="start" x="240" y="-53.3" font-family="Times,serif" font-size="14.00">person_id :integer</text>
<text text-anchor="start" x="240" y="-38.3" font-family="Times,serif" font-size="14.00">proyect_id :integer</text>
<text text-anchor="start" x="240" y="-23.3" font-family="Times,serif" font-size="14.00">created_at :timestamp without time zone</text>
<text text-anchor="start" x="240" y="-8.3" font-family="Times,serif" font-size="14.00">updated_at :timestamp without time zone</text>
</g>
<!-- Proyect -->
<g id="node3" class="node"><title>Proyect</title>
<path fill="none" stroke="black" d="M244,-271.5C244,-271.5 464,-271.5 464,-271.5 470,-271.5 476,-277.5 476,-283.5 476,-283.5 476,-350.5 476,-350.5 476,-356.5 470,-362.5 464,-362.5 464,-362.5 244,-362.5 244,-362.5 238,-362.5 232,-356.5 232,-350.5 232,-350.5 232,-283.5 232,-283.5 232,-277.5 238,-271.5 244,-271.5"/>
<text text-anchor="middle" x="354" y="-347.3" font-family="Times,serif" font-size="14.00">Proyect</text>
<polyline fill="none" stroke="black" points="232,-339.5 476,-339.5 "/>
<text text-anchor="start" x="240" y="-324.3" font-family="Times,serif" font-size="14.00">id :integer</text>
<text text-anchor="start" x="240" y="-309.3" font-family="Times,serif" font-size="14.00">name :character varying</text>
<text text-anchor="start" x="240" y="-294.3" font-family="Times,serif" font-size="14.00">created_at :timestamp without time zone</text>
<text text-anchor="start" x="240" y="-279.3" font-family="Times,serif" font-size="14.00">updated_at :timestamp without time zone</text>
</g>
<!-- Proyect&#45;&gt;Personproyect -->
<g id="edge1" class="edge"><title>Proyect&#45;&gt;Personproyect</title>
<path fill="none" stroke="#01ba9c" d="M311.745,-264.455C306.095,-255.137 301.165,-245.144 298,-235 285.821,-195.967 286.618,-182.273 298,-143 300.667,-133.798 304.609,-124.634 309.188,-115.883"/>
<ellipse fill="none" stroke="#01ba9c" cx="314.042" cy="-268.065" rx="4.00002" ry="4.00002"/>
<polygon fill="#01ba9c" stroke="#01ba9c" points="309.306,-115.669 318.097,-109.114 311.734,-111.299 314.163,-106.928 314.163,-106.928 314.163,-106.928 311.734,-111.299 310.229,-104.742 309.306,-115.669 309.306,-115.669"/>
</g>
<!-- Person -->
<g id="node5" class="node"><title>Person</title>
<path fill="none" stroke="black" d="M319,-143.5C319,-143.5 539,-143.5 539,-143.5 545,-143.5 551,-149.5 551,-155.5 551,-155.5 551,-222.5 551,-222.5 551,-228.5 545,-234.5 539,-234.5 539,-234.5 319,-234.5 319,-234.5 313,-234.5 307,-228.5 307,-222.5 307,-222.5 307,-155.5 307,-155.5 307,-149.5 313,-143.5 319,-143.5"/>
<text text-anchor="middle" x="429" y="-219.3" font-family="Times,serif" font-size="14.00">Person</text>
<polyline fill="none" stroke="black" points="307,-211.5 551,-211.5 "/>
<text text-anchor="start" x="315" y="-196.3" font-family="Times,serif" font-size="14.00">id :integer</text>
<text text-anchor="start" x="315" y="-181.3" font-family="Times,serif" font-size="14.00">name :character varying</text>
<text text-anchor="start" x="315" y="-166.3" font-family="Times,serif" font-size="14.00">created_at :timestamp without time zone</text>
<text text-anchor="start" x="315" y="-151.3" font-family="Times,serif" font-size="14.00">updated_at :timestamp without time zone</text>
</g>
<!-- Proyect&#45;&gt;Person -->
<g id="edge2" class="edge"><title>Proyect&#45;&gt;Person</title>
<path fill="none" stroke="#19b0a0" d="M385.876,-262.449C389.582,-256.222 393.364,-249.868 397.071,-243.64"/>
<polygon fill="#19b0a0" stroke="#19b0a0" points="385.768,-262.629 376.787,-268.921 383.211,-266.926 380.653,-271.222 380.653,-271.222 380.653,-271.222 383.211,-266.926 384.52,-273.524 385.768,-262.629 385.768,-262.629"/>
<polygon fill="#19b0a0" stroke="#19b0a0" points="397.318,-243.226 406.299,-236.935 399.875,-238.93 402.432,-234.633 402.432,-234.633 402.432,-234.633 399.875,-238.93 398.566,-232.332 397.318,-243.226 397.318,-243.226"/>
</g>
<!-- ApplicationRecord -->
<g id="node4" class="node"><title>ApplicationRecord</title>
<ellipse fill="none" stroke="black" cx="571" cy="-317" rx="77.1866" ry="18"/>
<text text-anchor="middle" x="571" y="-313.3" font-family="Times,serif" font-size="14.00">ApplicationRecord</text>
</g>
<!-- Person&#45;&gt;Personproyect -->
<g id="edge3" class="edge"><title>Person&#45;&gt;Personproyect</title>
<path fill="none" stroke="#40867c" d="M399.762,-135.956C396.067,-129.379 392.259,-122.602 388.493,-115.897"/>
<ellipse fill="none" stroke="#40867c" cx="401.858" cy="-139.688" rx="4.00002" ry="4.00002"/>
<polygon fill="#40867c" stroke="#40867c" points="388.294,-115.543 387.319,-104.62 385.845,-111.183 383.396,-106.824 383.396,-106.824 383.396,-106.824 385.845,-111.183 379.472,-109.028 388.294,-115.543 388.294,-115.543"/>
</g>
</g>
</svg>
