<?xml version="1.0" encoding="UTF-8" standalone="no"?>
<!DOCTYPE svg PUBLIC "-//W3C//DTD SVG 1.1//EN"
 "http://www.w3.org/Graphics/SVG/1.1/DTD/svg11.dtd">
<!-- Generated by graphviz version 2.38.0 (20140413.2041)
 -->
<!-- Title: models_diagram Pages: 1 -->
<svg width="488pt" height="230pt"
 viewBox="0.00 0.00 488.34 230.00" xmlns="http://www.w3.org/2000/svg" xmlns:xlink="http://www.w3.org/1999/xlink">
<g id="graph0" class="graph" transform="scale(1 1) rotate(0) translate(4 226)">
<title>models_diagram</title>
<polygon fill="none" stroke="none" points="-4,4 -4,-226 484.343,-226 484.343,4 -4,4"/>
<!-- _diagram_info -->
<g id="node1" class="node"><title>_diagram_info</title>
<text text-anchor="start" x="8" y="-207.6" font-family="Times,serif" font-size="13.00">Models diagram</text>
<text text-anchor="start" x="8" y="-193.6" font-family="Times,serif" font-size="13.00">Date: Oct 25 2017 &#45; 17:28</text>
<text text-anchor="start" x="8" y="-179.6" font-family="Times,serif" font-size="13.00">Migration version: 20171025202613</text>
<text text-anchor="start" x="8" y="-165.6" font-family="Times,serif" font-size="13.00">Generated by RailRoady 1.5.3</text>
<text text-anchor="start" x="8" y="-151.6" font-family="Times,serif" font-size="13.00">http://railroady.prestonlee.com</text>
</g>
<!-- Personproyect -->
<g id="node2" class="node"><title>Personproyect</title>
<ellipse fill="none" stroke="black" cx="270" cy="-18" rx="61.1893" ry="18"/>
<text text-anchor="middle" x="270" y="-14.3" font-family="Times,serif" font-size="14.00">Personproyect</text>
</g>
<!-- Proyect -->
<g id="node3" class="node"><title>Proyect</title>
<ellipse fill="none" stroke="black" cx="270" cy="-183" rx="37.8943" ry="18"/>
<text text-anchor="middle" x="270" y="-179.3" font-family="Times,serif" font-size="14.00">Proyect</text>
</g>
<!-- Proyect&#45;&gt;Personproyect -->
<g id="edge1" class="edge"><title>Proyect&#45;&gt;Personproyect</title>
<path fill="none" stroke="#672397" d="M264.107,-156.882C259.628,-134.584 254.745,-101.118 258,-72 258.958,-63.4299 260.762,-54.2228 262.685,-45.9264"/>
<ellipse fill="none" stroke="#672397" cx="264.961" cy="-160.935" rx="4.00001" ry="4.00001"/>
<polygon fill="#672397" stroke="#672397" points="262.734,-45.7294 269.5,-37.0996 263.932,-40.8751 265.131,-36.0209 265.131,-36.0209 265.131,-36.0209 263.932,-40.8751 260.762,-34.9422 262.734,-45.7294 262.734,-45.7294"/>
</g>
<!-- Person -->
<g id="node5" class="node"><title>Person</title>
<ellipse fill="none" stroke="black" cx="301" cy="-90" rx="34.394" ry="18"/>
<text text-anchor="middle" x="301" y="-86.3" font-family="Times,serif" font-size="14.00">Person</text>
</g>
<!-- Proyect&#45;&gt;Person -->
<g id="edge2" class="edge"><title>Proyect&#45;&gt;Person</title>
<path fill="none" stroke="#e88f52" d="M279.202,-154.988C283.21,-143.221 287.896,-129.467 291.894,-117.732"/>
<polygon fill="#e88f52" stroke="#e88f52" points="279.056,-155.418 271.571,-163.432 277.443,-160.151 275.831,-164.884 275.831,-164.884 275.831,-164.884 277.443,-160.151 280.09,-166.335 279.056,-155.418 279.056,-155.418"/>
<polygon fill="#e88f52" stroke="#e88f52" points="291.971,-117.505 299.455,-109.491 293.583,-112.773 295.195,-108.04 295.195,-108.04 295.195,-108.04 293.583,-112.773 290.936,-106.589 291.971,-117.505 291.971,-117.505"/>
</g>
<!-- ApplicationRecord -->
<g id="node4" class="node"><title>ApplicationRecord</title>
<ellipse fill="none" stroke="black" cx="403" cy="-183" rx="77.1866" ry="18"/>
<text text-anchor="middle" x="403" y="-179.3" font-family="Times,serif" font-size="14.00">ApplicationRecord</text>
</g>
<!-- Person&#45;&gt;Personproyect -->
<g id="edge3" class="edge"><title>Person&#45;&gt;Personproyect</title>
<path fill="none" stroke="#c0796a" d="M290.399,-65.0625C287.552,-58.6325 284.458,-51.6473 281.561,-45.106"/>
<ellipse fill="none" stroke="#c0796a" cx="292.034" cy="-68.7536" rx="4.00002" ry="4.00002"/>
<polygon fill="#c0796a" stroke="#c0796a" points="281.558,-45.0997 281.624,-34.134 279.534,-40.528 277.509,-35.9562 277.509,-35.9562 277.509,-35.9562 279.534,-40.528 273.395,-37.7784 281.558,-45.0997 281.558,-45.0997"/>
</g>
</g>
</svg>
